<svg xmlns="http://www.w3.org/2000/svg" viewBox="-110 -110 220 220" width="400" height="400">
  <defs>
    <style>
      .lissajous-curve {
        fill: none;
        stroke: #0BB980;
        stroke-width: 2.5;
        stroke-linecap: round;
        stroke-linejoin: round;
      }
    </style>
  </defs>
  <path class="lissajous-curve" d="M 0.00,0.00 L 1.88,1.26 L 3.77,2.51 L 5.65,3.77 L 7.53,5.02 L 9.41,6.28 L 11.29,7.53 L 13.16,8.79 L 15.02,10.04 L 16.88,11.29 L 18.74,12.53 L 20.59,13.78 L 22.43,15.02 L 24.26,16.26 L 26.08,17.50 L 27.90,18.74 L 29.70,19.97 L 31.50,21.20 L 33.28,22.43 L 35.05,23.65 L 36.81,24.87 L 38.56,26.08 L 40.29,27.30 L 42.01,28.50 L 43.71,29.70 L 45.40,30.90 L 47.07,32.09 L 48.73,33.28 L 50.36,34.46 L 51.98,35.64 L 53.58,36.81 L 55.16,37.98 L 56.73,39.14 L 58.27,40.29 L 59.79,41.44 L 61.29,42.58 L 62.77,43.71 L 64.23,44.84 L 65.66,45.96 L 67.07,47.07 L 68.45,48.18 L 69.82,49.27 L 71.15,50.36 L 72.47,51.44 L 73.75,52.52 L 75.01,53.58 L 76.24,54.64 L 77.45,55.69 L 78.63,56.73 L 79.78,57.76 L 80.90,58.78 L 82.00,59.79 L 83.06,60.79 L 84.09,61.79 L 85.10,62.77 L 86.07,63.74 L 87.02,64.71 L 87.93,65.66 L 88.81,66.60 L 89.66,67.53 L 90.48,68.45 L 91.27,69.37 L 92.02,70.26 L 92.74,71.15 L 93.43,72.03 L 94.09,72.90 L 94.71,73.75 L 95.30,74.59 L 95.85,75.43 L 96.37,76.24 L 96.86,77.05 L 97.31,77.85 L 97.73,78.63 L 98.11,79.40 L 98.46,80.16 L 98.77,80.90 L 99.05,81.63 L 99.29,82.35 L 99.50,83.06 L 99.67,83.75 L 99.80,84.43 L 99.90,85.10 L 99.97,85.75 L 100.00,86.39 L 99.99,87.02 L 99.95,87.63 L 99.87,88.23 L 99.76,88.81 L 99.61,89.38 L 99.43,89.94 L 99.21,90.48 L 98.96,91.01 L 98.67,91.52 L 98.34,92.02 L 97.99,92.51 L 97.59,92.98 L 97.16,93.43 L 96.70,93.87 L 96.20,94.30 L 95.67,94.71 L 95.11,95.11 L 94.51,95.49 L 93.87,95.85 L 93.21,96.20 L 92.51,96.54 L 91.78,96.86 L 91.01,97.16 L 90.21,97.45 L 89.38,97.73 L 88.52,97.99 L 87.63,98.23 L 86.71,98.46 L 85.75,98.67 L 84.77,98.87 L 83.75,99.05 L 82.71,99.21 L 81.63,99.36 L 80.53,99.50 L 79.40,99.61 L 78.24,99.72 L 77.05,99.80 L 75.84,99.87 L 74.59,99.93 L 73.33,99.97 L 72.03,99.99 L 70.71,100.00 L 69.37,99.99 L 68.00,99.97 L 66.60,99.93 L 65.18,99.87 L 63.74,99.80 L 62.28,99.72 L 60.79,99.61 L 59.29,99.50 L 57.76,99.36 L 56.21,99.21 L 54.64,99.05 L 53.05,98.87 L 51.44,98.67 L 49.82,98.46 L 48.18,98.23 L 46.52,97.99 L 44.84,97.73 L 43.15,97.45 L 41.44,97.16 L 39.71,96.86 L 37.98,96.54 L 36.23,96.20 L 34.46,95.85 L 32.69,95.49 L 30.90,95.11 L 29.10,94.71 L 27.30,94.30 L 25.48,93.87 L 23.65,93.43 L 21.81,92.98 L 19.97,92.51 L 18.12,92.02 L 16.26,91.52 L 14.40,91.01 L 12.53,90.48 L 10.66,89.94 L 8.79,89.38 L 6.91,88.81 L 5.02,88.23 L 3.14,87.63 L 1.26,87.02 L -0.63,86.39 L -2.51,85.75 L -4.40,85.10 L -6.28,84.43 L -8.16,83.75 L -10.04,83.06 L -11.91,82.35 L -13.78,81.63 L -15.64,80.90 L -17.50,80.16 L -19.35,79.40 L -21.20,78.63 L -23.04,77.85 L -24.87,77.05 L -26.69,76.24 L -28.50,75.43 L -30.30,74.59 L -32.09,73.75 L -33.87,72.90 L -35.64,72.03 L -37.40,71.15 L -39.14,70.26 L -40.86,69.37 L -42.58,68.45 L -44.28,67.53 L -45.96,66.60 L -47.62,65.66 L -49.27,64.71 L -50.90,63.74 L -52.52,62.77 L -54.11,61.79 L -55.69,60.79 L -57.24,59.79 L -58.78,58.78 L -60.29,57.76 L -61.79,56.73 L -63.26,55.69 L -64.71,54.64 L -66.13,53.58 L -67.53,52.52 L -68.91,51.44 L -70.26,50.36 L -71.59,49.27 L -72.90,48.18 L -74.17,47.07 L -75.43,45.96 L -76.65,44.84 L -77.85,43.71 L -79.02,42.58 L -80.16,41.44 L -81.27,40.29 L -82.35,39.14 L -83.41,37.98 L -84.43,36.81 L -85.43,35.64 L -86.39,34.46 L -87.33,33.28 L -88.23,32.09 L -89.10,30.90 L -89.94,29.70 L -90.75,28.50 L -91.52,27.30 L -92.27,26.08 L -92.98,24.87 L -93.65,23.65 L -94.30,22.43 L -94.91,21.20 L -95.49,19.97 L -96.03,18.74 L -96.54,17.50 L -97.01,16.26 L -97.45,15.02 L -97.86,13.78 L -98.23,12.53 L -98.56,11.29 L -98.87,10.04 L -99.13,8.79 L -99.36,7.53 L -99.56,6.28 L -99.72,5.02 L -99.84,3.77 L -99.93,2.51 L -99.98,1.26 L -100.00,0.00 L -99.98,-1.26 L -99.93,-2.51 L -99.84,-3.77 L -99.72,-5.02 L -99.56,-6.28 L -99.36,-7.53 L -99.13,-8.79 L -98.87,-10.04 L -98.56,-11.29 L -98.23,-12.53 L -97.86,-13.78 L -97.45,-15.02 L -97.01,-16.26 L -96.54,-17.50 L -96.03,-18.74 L -95.49,-19.97 L -94.91,-21.20 L -94.30,-22.43 L -93.65,-23.65 L -92.98,-24.87 L -92.27,-26.08 L -91.52,-27.30 L -90.75,-28.50 L -89.94,-29.70 L -89.10,-30.90 L -88.23,-32.09 L -87.33,-33.28 L -86.39,-34.46 L -85.43,-35.64 L -84.43,-36.81 L -83.41,-37.98 L -82.35,-39.14 L -81.27,-40.29 L -80.16,-41.44 L -79.02,-42.58 L -77.85,-43.71 L -76.65,-44.84 L -75.43,-45.96 L -74.17,-47.07 L -72.90,-48.18 L -71.59,-49.27 L -70.26,-50.36 L -68.91,-51.44 L -67.53,-52.52 L -66.13,-53.58 L -64.71,-54.64 L -63.26,-55.69 L -61.79,-56.73 L -60.29,-57.76 L -58.78,-58.78 L -57.24,-59.79 L -55.69,-60.79 L -54.11,-61.79 L -52.52,-62.77 L -50.90,-63.74 L -49.27,-64.71 L -47.62,-65.66 L -45.96,-66.60 L -44.28,-67.53 L -42.58,-68.45 L -40.86,-69.37 L -39.14,-70.26 L -37.40,-71.15 L -35.64,-72.03 L -33.87,-72.90 L -32.09,-73.75 L -30.30,-74.59 L -28.50,-75.43 L -26.69,-76.24 L -24.87,-77.05 L -23.04,-77.85 L -21.20,-78.63 L -19.35,-79.40 L -17.50,-80.16 L -15.64,-80.90 L -13.78,-81.63 L -11.91,-82.35 L -10.04,-83.06 L -8.16,-83.75 L -6.28,-84.43 L -4.40,-85.10 L -2.51,-85.75 L -0.63,-86.39 L 1.26,-87.02 L 3.14,-87.63 L 5.02,-88.23 L 6.91,-88.81 L 8.79,-89.38 L 10.66,-89.94 L 12.53,-90.48 L 14.40,-91.01 L 16.26,-91.52 L 18.12,-92.02 L 19.97,-92.51 L 21.81,-92.98 L 23.65,-93.43 L 25.48,-93.87 L 27.30,-94.30 L 29.10,-94.71 L 30.90,-95.11 L 32.69,-95.49 L 34.46,-95.85 L 36.23,-96.20 L 37.98,-96.54 L 39.71,-96.86 L 41.44,-97.16 L 43.15,-97.45 L 44.84,-97.73 L 46.52,-97.99 L 48.18,-98.23 L 49.82,-98.46 L 51.44,-98.67 L 53.05,-98.87 L 54.64,-99.05 L 56.21,-99.21 L 57.76,-99.36 L 59.29,-99.50 L 60.79,-99.61 L 62.28,-99.72 L 63.74,-99.80 L 65.18,-99.87 L 66.60,-99.93 L 68.00,-99.97 L 69.37,-99.99 L 70.71,-100.00 L 72.03,-99.99 L 73.33,-99.97 L 74.59,-99.93 L 75.84,-99.87 L 77.05,-99.80 L 78.24,-99.72 L 79.40,-99.61 L 80.53,-99.50 L 81.63,-99.36 L 82.71,-99.21 L 83.75,-99.05 L 84.77,-98.87 L 85.75,-98.67 L 86.71,-98.46 L 87.63,-98.23 L 88.52,-97.99 L 89.38,-97.73 L 90.21,-97.45 L 91.01,-97.16 L 91.78,-96.86 L 92.51,-96.54 L 93.21,-96.20 L 93.87,-95.85 L 94.51,-95.49 L 95.11,-95.11 L 95.67,-94.71 L 96.20,-94.30 L 96.70,-93.87 L 97.16,-93.43 L 97.59,-92.98 L 97.99,-92.51 L 98.34,-92.02 L 98.67,-91.52 L 98.96,-91.01 L 99.21,-90.48 L 99.43,-89.94 L 99.61,-89.38 L 99.76,-88.81 L 99.87,-88.23 L 99.95,-87.63 L 99.99,-87.02 L 100.00,-86.39 L 99.97,-85.75 L 99.90,-85.10 L 99.80,-84.43 L 99.67,-83.75 L 99.50,-83.06 L 99.29,-82.35 L 99.05,-81.63 L 98.77,-80.90 L 98.46,-80.16 L 98.11,-79.40 L 97.73,-78.63 L 97.31,-77.85 L 96.86,-77.05 L 96.37,-76.24 L 95.85,-75.43 L 95.30,-74.59 L 94.71,-73.75 L 94.09,-72.90 L 93.43,-72.03 L 92.74,-71.15 L 92.02,-70.26 L 91.27,-69.37 L 90.48,-68.45 L 89.66,-67.53 L 88.81,-66.60 L 87.93,-65.66 L 87.02,-64.71 L 86.07,-63.74 L 85.10,-62.77 L 84.09,-61.79 L 83.06,-60.79 L 82.00,-59.79 L 80.90,-58.78 L 79.78,-57.76 L 78.63,-56.73 L 77.45,-55.69 L 76.24,-54.64 L 75.01,-53.58 L 73.75,-52.52 L 72.47,-51.44 L 71.15,-50.36 L 69.82,-49.27 L 68.45,-48.18 L 67.07,-47.07 L 65.66,-45.96 L 64.23,-44.84 L 62.77,-43.71 L 61.29,-42.58 L 59.79,-41.44 L 58.27,-40.29 L 56.73,-39.14 L 55.16,-37.98 L 53.58,-36.81 L 51.98,-35.64 L 50.36,-34.46 L 48.73,-33.28 L 47.07,-32.09 L 45.40,-30.90 L 43.71,-29.70 L 42.01,-28.50 L 40.29,-27.30 L 38.56,-26.08 L 36.81,-24.87 L 35.05,-23.65 L 33.28,-22.43 L 31.50,-21.20 L 29.70,-19.97 L 27.90,-18.74 L 26.08,-17.50 L 24.26,-16.26 L 22.43,-15.02 L 20.59,-13.78 L 18.74,-12.53 L 16.88,-11.29 L 15.02,-10.04 L 13.16,-8.79 L 11.29,-7.53 L 9.41,-6.28 L 7.53,-5.02 L 5.65,-3.77 L 3.77,-2.51 L 1.88,-1.26 Z"/>
</svg>
